<?xml version="1.0" standalone="no"?><!DOCTYPE svg PUBLIC "-//W3C//DTD SVG 1.1//EN" "http://www.w3.org/Graphics/SVG/1.1/DTD/svg11.dtd"><svg t="1544456752867" class="icon" style="" viewBox="0 0 1024 1024" version="1.1" xmlns="http://www.w3.org/2000/svg" p-id="1340" xmlns:xlink="http://www.w3.org/1999/xlink" width="320" height="320"><defs><style type="text/css"></style></defs><path d="M991.104 148.48c0-7.104 0-14.208-0.416-21.344-2.72-47.616-47.84-90.208-95.616-90.24H514.176v0.288c-128.192 0-256.352-0.032-384.544 0.032-52.352 0.032-97.472 45.92-96.864 98.048 0.192 18.976 0.416 37.952 0.416 56.928-0.096 176.8 1.344 353.696-1.184 530.432-0.928 64.224 55.808 111.424 107.584 106.176 20.512-2.144 41.504-0.288 62.272-0.192 7.904 0 13.92 0.576 11.744 11.904-3.072 15.936-4.928 32.32-6.016 48.64-1.248 18.016 9.248 30.912 20.416 43.648 5.792 6.752 9.664 15.296 13.344 23.52 2.112 4.672 0.672 11.232 3.36 15.328 2.752 4.128 8.448 8.448 13.088 8.704 3.008 0.096 9.76-7.232 9.248-10.304-3.648-21.824 8.224-29.6 26.752-33.056 3.904-0.832 7.488-3.456 11.168-5.44 43.456-23.136 78.144-57.056 112.8-91.168 5.728-5.728 14.816-10.976 22.528-11.168a2725.792 2725.792 0 0 1 126.336-0.48c7.872 0.288 16.864 4.864 23.072 10.112 22.528 19.136 43.424 40.096 66.176 59.04 23.296 19.296 48.544 36.064 77.728 45.248 22.144 6.944 22.016 6.464 20.448 29.792-0.352 4.224 2.528 10.976 5.92 12.832 3.84 2.048 12.032 1.696 14.464-1.024 3.392-3.744 3.392-10.592 4.544-16.32 2.24-10.752 0.736-25.088 7.232-31.936 26.336-27.712 26.624-59.328 18.304-92.672-3.296-13.696 1.568-15.36 12.928-15.104 23.712 0.48 47.488-1.12 71.168 0.096 55.36 2.624 104.064-50.624 103.488-105.504-2.304-191.488-0.992-383.168-0.992-574.816zM317.792 896.384c-12.384 9.472-27.552 16.224-42.432 21.344-24.064 8.16-43.072-5.696-45.344-31.296-0.32-3.552-0.064-7.04-0.064-10.688 0.192-31.744 17.44-55.744 37.984-77.28 25.696-27.232 58.432-44.32 92.448-57.92 30.592-12.192 62.56-21.024 94.08-30.944 4.8-1.44 10.464-1.12 15.616-0.576 10.208 1.088 13.344 7.328 8.96 16.288-5.184 10.624-9.888 21.792-17.056 31.008-41.6 53.216-90.528 99.296-144.192 140.064z m142.208-100.032l43.84-65.344 44.96 65.344h-88.8z m322.208 105.184c-8.32 18.336-24.128 24.352-43.552 18.144-31.168-10.08-56.576-29.312-80.224-50.592-29.856-26.88-59.392-54.24-87.232-83.2-15.36-15.968-28.16-34.848-39.648-53.984-9.632-15.84-2.784-24.608 16.288-25.472 21.632 5.792 43.52 10.752 64.832 17.6 36.064 11.616 71.456 25.248 102.784 47.04 29.376 20.544 55.04 44.672 66.208 80.32 5.344 16.672 8.096 33.344 0.544 50.144z m179.616-451.84c0 91.36-0.192 182.72-0.416 274.048 0 33.024-14.144 57.472-45.824 68.672-12.544 4.384-26.72 4.928-40.192 5.12a1424.576 1424.576 0 0 1-86.688-1.856 32.192 32.192 0 0 1-19.936-8.352c-58.368-56.64-131.104-83.232-208.736-98.4-17.12-3.36-35.584-4-50.528 10.112-2.08 2.016-9.824 1.344-12.256-0.928-14.016-13.12-31.52-12.672-47.2-9.056-72.736 16.672-143.264 39.584-196.224 96-15.68 16.672-33.824 11.424-50.976 12.672-23.488 1.6-47.2-0.8-70.816-1.216-40.928-0.896-68.864-28.768-68.928-69.568-0.16-97.92-0.064-195.776-0.064-293.696h-0.064c0-97.856 0.864-195.712-0.448-293.568-0.512-37.856 33.088-72.128 66.656-71.04 33.76 1.088 67.52 0.128 101.28 0 87.104-0.288 174.112-0.896 261.184-0.864 109.664 0 219.328 0.576 328.96 0.896 23.648 0.096 47.328 0 71.072 0.384 40.864 0.672 69.76 29.344 69.984 70.912 0.32 103.232 0.16 206.464 0.16 309.728z m-139.616-136.864c-27.68-23.936-59.808-40.032-94.592-50.208-19.616-5.728-40.48-7.616-60.96-9.792-4.672-0.448-10.016 5.248-14.976 8.096 4.416 3.68 8.352 8.544 13.408 10.688 6.56 2.816 14.144 3.552 21.28 5.152V281.6c-5.248 3.68-10.56 7.424-15.808 11.008-37.28 25.152-52.672 75.872-35.232 115.904 23.296 53.504 71.52 73.024 124.096 54.72 44.736-15.648 67.552-48.992 62.752-102.592-0.672-7.36-1.376-11.744 7.808-14.112 13.344-3.488 14.56-8.832 5.92-19.904a99.584 99.584 0 0 0-13.696-13.792z m-168.384 35.104c0.416-9.024 11.072-19.232 20.192-19.392a20.16 20.16 0 0 1 20.192 20.32c0 12.064-7.904 19.712-20.352 19.712-10.176 0-20.608-10.72-20.032-20.64z m33.408 91.36c-13.312-0.224-25.536-14.112-25.536-29.056 0-14.464 13.088-27.2 27.424-26.72 12.928 0.416 25.152 13.568 25.312 27.136 0.032 16.224-11.968 28.832-27.2 28.64z m70.016-21.824c-21.952-0.672-40.576-22.016-40.064-45.824 0.576-24.032 22.816-44.928 46.752-43.968 21.6 0.896 42.528 24.224 42.112 46.944-0.416 25.344-21.28 43.68-48.8 42.848zM327.744 286.464l-11.424-8c8-8.256 19.52-15.744 18.432-19.84-3.232-11.84-15.456-5.888-24.32-6.336-0.608-0.064-1.184 0.096-1.76 0.128-42.272 3.392-77.664 23.712-111.392 46.944-12.48 8.608-23.2 20.224-33.152 31.808-9.28 10.784-6.752 17.76 6.752 19.136 11.392 1.12 11.232 6.56 11.2 15.296-0.064 36.8 16.192 64.768 48.128 82.976 29.984 17.088 60.544 18.368 91.072 1.024 64.192-36.48 67.52-120.64 6.464-163.136z m-121.92 57.28c-1.504-9.088 10.272-21.088 19.616-20.992 9.504 0.064 18.272 9.344 18.592 19.712 0.352 12.064-6.112 18.912-17.824 18.976-12 0-18.56-6.624-20.384-17.696z m33.504 87.2c-13.344 0.064-27.456-14.176-27.2-27.552 0.256-15.2 11.968-25.472 28.416-24.96 15.488 0.48 24.448 10.304 24.224 26.592-0.192 15.424-10.464 25.824-25.44 25.92z m71.296-20.064a43.456 43.456 0 0 1-43.072-42.592c-0.288-24.512 18.88-46.144 42.304-45.536 26.464 0.704 43.328 17.728 44.992 45.536 1.28 19.584-21.888 43.744-44.224 42.592z m193.632 149.568c-40.16 0.672-67.712 17.696-89.92 43.648-4.736 5.504-3.968 15.744-5.728 23.808 7.168-1.312 14.528-1.952 21.44-4.128 20.704-6.4 40.832-16.352 62.016-19.488 28.128-4.224 54.496 5.888 79.008 20.288 4.224 2.496 10.176 2.176 15.328 3.104-0.8-5.472 0.128-12.16-2.624-16.288-20-29.888-45.984-50.528-79.52-50.944z m241.984-62.048c-2.592 1.76-7.744 1.824-10.752 0.448-22.24-10.08-31.008-8.352-47.68 11.264h78.048l0.864-4.992c-4.928-7.168-9.472-14.208-20.48-6.72z m-489.216-8.608c-4.128 1.12-7.36 5.536-11.04 8.448 4 1.6 8.032 4.704 11.936 4.48 12.864-0.672 25.632-2.56 38.432-4l0.096 0.96c1.792 0.128 3.52 0.48 5.28 0.288 4-0.512 7.968-1.248 11.968-1.888l-10.72-7.712c-15.168-10.912-30.752-4.8-45.952-0.576z" p-id="1341" fill="#13227a"></path></svg>